<mxfile host="app.diagrams.net" modified="2023-09-27T18:35:47.515Z" agent="Mozilla/5.0 (X11; Linux x86_64; rv:109.0) Gecko/20100101 Firefox/114.0" etag="o_MibIKiT7sEc_ARA0KB" version="21.8.2" type="github">
  <diagram name="Página-1" id="hSZsV_RqKOn4cfrgah84">
    <mxGraphModel dx="2261" dy="795" grid="1" gridSize="10" guides="1" tooltips="1" connect="1" arrows="1" fold="1" page="1" pageScale="1" pageWidth="827" pageHeight="1169" math="0" shadow="0">
      <root>
        <mxCell id="0" />
        <mxCell id="1" parent="0" />
        <mxCell id="6kc5_YprjEtkSy11eYte-9" value="" style="edgeStyle=orthogonalEdgeStyle;rounded=0;orthogonalLoop=1;jettySize=auto;html=1;endArrow=none;endFill=0;" edge="1" parent="1" source="6kc5_YprjEtkSy11eYte-5" target="6kc5_YprjEtkSy11eYte-7">
          <mxGeometry relative="1" as="geometry" />
        </mxCell>
        <mxCell id="6kc5_YprjEtkSy11eYte-5" value="fábricas" style="rounded=0;whiteSpace=wrap;html=1;" vertex="1" parent="1">
          <mxGeometry x="40" y="160" width="120" height="60" as="geometry" />
        </mxCell>
        <mxCell id="6kc5_YprjEtkSy11eYte-6" value="" style="endArrow=none;html=1;rounded=0;" edge="1" parent="1">
          <mxGeometry width="50" height="50" relative="1" as="geometry">
            <mxPoint x="160" y="189.5" as="sourcePoint" />
            <mxPoint x="260" y="190" as="targetPoint" />
          </mxGeometry>
        </mxCell>
        <mxCell id="6kc5_YprjEtkSy11eYte-7" value="producen" style="rhombus;whiteSpace=wrap;html=1;" vertex="1" parent="1">
          <mxGeometry x="260" y="150" width="80" height="80" as="geometry" />
        </mxCell>
        <mxCell id="6kc5_YprjEtkSy11eYte-11" value="artículos" style="rounded=0;whiteSpace=wrap;html=1;" vertex="1" parent="1">
          <mxGeometry x="440" y="160" width="120" height="60" as="geometry" />
        </mxCell>
        <mxCell id="6kc5_YprjEtkSy11eYte-12" value="" style="endArrow=none;html=1;rounded=0;entryX=0;entryY=0.5;entryDx=0;entryDy=0;endFill=0;" edge="1" parent="1" target="6kc5_YprjEtkSy11eYte-11">
          <mxGeometry width="50" height="50" relative="1" as="geometry">
            <mxPoint x="340" y="189.5" as="sourcePoint" />
            <mxPoint x="410" y="189.5" as="targetPoint" />
          </mxGeometry>
        </mxCell>
        <mxCell id="6kc5_YprjEtkSy11eYte-13" value="" style="endArrow=none;html=1;rounded=0;endFill=0;" edge="1" parent="1">
          <mxGeometry width="50" height="50" relative="1" as="geometry">
            <mxPoint x="99.5" y="220" as="sourcePoint" />
            <mxPoint x="99.5" y="290" as="targetPoint" />
          </mxGeometry>
        </mxCell>
        <mxCell id="6kc5_YprjEtkSy11eYte-14" value="clientes" style="rounded=0;whiteSpace=wrap;html=1;" vertex="1" parent="1">
          <mxGeometry x="40" y="440" width="120" height="60" as="geometry" />
        </mxCell>
        <mxCell id="6kc5_YprjEtkSy11eYte-15" value="tienen" style="rhombus;whiteSpace=wrap;html=1;" vertex="1" parent="1">
          <mxGeometry x="60" y="290" width="80" height="80" as="geometry" />
        </mxCell>
        <mxCell id="6kc5_YprjEtkSy11eYte-16" value="" style="endArrow=none;html=1;rounded=0;endFill=0;" edge="1" parent="1">
          <mxGeometry width="50" height="50" relative="1" as="geometry">
            <mxPoint x="99.5" y="370" as="sourcePoint" />
            <mxPoint x="99.5" y="440" as="targetPoint" />
          </mxGeometry>
        </mxCell>
        <mxCell id="6kc5_YprjEtkSy11eYte-17" value="" style="endArrow=none;html=1;rounded=0;endFill=0;" edge="1" parent="1">
          <mxGeometry width="50" height="50" relative="1" as="geometry">
            <mxPoint x="160" y="469.5" as="sourcePoint" />
            <mxPoint x="250" y="469.5" as="targetPoint" />
          </mxGeometry>
        </mxCell>
        <mxCell id="6kc5_YprjEtkSy11eYte-18" value="hacen" style="rhombus;whiteSpace=wrap;html=1;" vertex="1" parent="1">
          <mxGeometry x="250" y="430" width="80" height="80" as="geometry" />
        </mxCell>
        <mxCell id="6kc5_YprjEtkSy11eYte-19" value="" style="endArrow=none;html=1;rounded=0;endFill=0;" edge="1" parent="1">
          <mxGeometry width="50" height="50" relative="1" as="geometry">
            <mxPoint x="330" y="469.5" as="sourcePoint" />
            <mxPoint x="420" y="469.5" as="targetPoint" />
          </mxGeometry>
        </mxCell>
        <mxCell id="6kc5_YprjEtkSy11eYte-20" value="pedidos" style="rounded=0;whiteSpace=wrap;html=1;" vertex="1" parent="1">
          <mxGeometry x="420" y="440" width="120" height="60" as="geometry" />
        </mxCell>
        <mxCell id="6kc5_YprjEtkSy11eYte-21" value="" style="endArrow=none;html=1;rounded=0;" edge="1" parent="1">
          <mxGeometry width="50" height="50" relative="1" as="geometry">
            <mxPoint x="-30" y="469.5" as="sourcePoint" />
            <mxPoint x="40" y="469.5" as="targetPoint" />
          </mxGeometry>
        </mxCell>
        <mxCell id="6kc5_YprjEtkSy11eYte-22" value="" style="endArrow=none;html=1;rounded=0;" edge="1" parent="1">
          <mxGeometry width="50" height="50" relative="1" as="geometry">
            <mxPoint x="-10" y="550" as="sourcePoint" />
            <mxPoint x="40" y="500" as="targetPoint" />
          </mxGeometry>
        </mxCell>
        <mxCell id="6kc5_YprjEtkSy11eYte-23" value="" style="endArrow=none;html=1;rounded=0;" edge="1" parent="1">
          <mxGeometry width="50" height="50" relative="1" as="geometry">
            <mxPoint x="60.5" y="560" as="sourcePoint" />
            <mxPoint x="60" y="500" as="targetPoint" />
          </mxGeometry>
        </mxCell>
        <mxCell id="6kc5_YprjEtkSy11eYte-24" value="" style="endArrow=none;html=1;rounded=0;" edge="1" parent="1">
          <mxGeometry width="50" height="50" relative="1" as="geometry">
            <mxPoint x="130" y="560" as="sourcePoint" />
            <mxPoint x="130" y="500" as="targetPoint" />
          </mxGeometry>
        </mxCell>
        <mxCell id="6kc5_YprjEtkSy11eYte-25" value="" style="endArrow=none;html=1;rounded=0;entryX=1;entryY=1;entryDx=0;entryDy=0;" edge="1" parent="1" target="6kc5_YprjEtkSy11eYte-14">
          <mxGeometry width="50" height="50" relative="1" as="geometry">
            <mxPoint x="210" y="550" as="sourcePoint" />
            <mxPoint x="240" y="510" as="targetPoint" />
          </mxGeometry>
        </mxCell>
        <mxCell id="6kc5_YprjEtkSy11eYte-26" value="nº cliente" style="ellipse;whiteSpace=wrap;html=1;" vertex="1" parent="1">
          <mxGeometry x="-120" y="445" width="90" height="50" as="geometry" />
        </mxCell>
        <mxCell id="6kc5_YprjEtkSy11eYte-27" value="direcciones de envío" style="ellipse;whiteSpace=wrap;html=1;" vertex="1" parent="1">
          <mxGeometry x="-80" y="545" width="80" height="40" as="geometry" />
        </mxCell>
        <mxCell id="6kc5_YprjEtkSy11eYte-28" value="saldo" style="ellipse;whiteSpace=wrap;html=1;" vertex="1" parent="1">
          <mxGeometry x="20" y="560" width="70" height="30" as="geometry" />
        </mxCell>
        <mxCell id="6kc5_YprjEtkSy11eYte-29" value="límite de crédito" style="ellipse;whiteSpace=wrap;html=1;" vertex="1" parent="1">
          <mxGeometry x="100" y="560" width="70" height="40" as="geometry" />
        </mxCell>
        <mxCell id="6kc5_YprjEtkSy11eYte-30" value="descuento" style="ellipse;whiteSpace=wrap;html=1;" vertex="1" parent="1">
          <mxGeometry x="190" y="545" width="80" height="40" as="geometry" />
        </mxCell>
        <mxCell id="6kc5_YprjEtkSy11eYte-31" value="" style="endArrow=none;html=1;rounded=0;" edge="1" parent="1">
          <mxGeometry width="50" height="50" relative="1" as="geometry">
            <mxPoint x="-90" y="445" as="sourcePoint" />
            <mxPoint x="-140" y="400" as="targetPoint" />
          </mxGeometry>
        </mxCell>
        <mxCell id="6kc5_YprjEtkSy11eYte-32" value="" style="endArrow=none;html=1;rounded=0;" edge="1" parent="1">
          <mxGeometry width="50" height="50" relative="1" as="geometry">
            <mxPoint x="-180" y="445" as="sourcePoint" />
            <mxPoint x="-120" y="465" as="targetPoint" />
          </mxGeometry>
        </mxCell>
        <mxCell id="6kc5_YprjEtkSy11eYte-33" value="" style="endArrow=none;html=1;rounded=0;entryX=0.044;entryY=0.7;entryDx=0;entryDy=0;entryPerimeter=0;" edge="1" parent="1" target="6kc5_YprjEtkSy11eYte-26">
          <mxGeometry width="50" height="50" relative="1" as="geometry">
            <mxPoint x="-177.17000000000002" y="520.35" as="sourcePoint" />
            <mxPoint x="-110" y="480" as="targetPoint" />
          </mxGeometry>
        </mxCell>
        <mxCell id="6kc5_YprjEtkSy11eYte-34" value="" style="endArrow=none;html=1;rounded=0;" edge="1" parent="1" target="6kc5_YprjEtkSy11eYte-26">
          <mxGeometry width="50" height="50" relative="1" as="geometry">
            <mxPoint x="-130" y="540" as="sourcePoint" />
            <mxPoint x="-100" y="500" as="targetPoint" />
          </mxGeometry>
        </mxCell>
        <mxCell id="6kc5_YprjEtkSy11eYte-35" value="Nº" style="ellipse;whiteSpace=wrap;html=1;" vertex="1" parent="1">
          <mxGeometry x="-190" y="380" width="50" height="30" as="geometry" />
        </mxCell>
        <mxCell id="6kc5_YprjEtkSy11eYte-36" value="Calle" style="ellipse;whiteSpace=wrap;html=1;" vertex="1" parent="1">
          <mxGeometry x="-230" y="430" width="50" height="30" as="geometry" />
        </mxCell>
        <mxCell id="6kc5_YprjEtkSy11eYte-37" value="Ciudad" style="ellipse;whiteSpace=wrap;html=1;" vertex="1" parent="1">
          <mxGeometry x="-235" y="510" width="60" height="30" as="geometry" />
        </mxCell>
        <mxCell id="6kc5_YprjEtkSy11eYte-38" value="Provincia" style="ellipse;whiteSpace=wrap;html=1;" vertex="1" parent="1">
          <mxGeometry x="-180" y="530" width="60" height="35" as="geometry" />
        </mxCell>
        <mxCell id="6kc5_YprjEtkSy11eYte-39" value="" style="endArrow=none;html=1;rounded=0;" edge="1" parent="1">
          <mxGeometry width="50" height="50" relative="1" as="geometry">
            <mxPoint x="560" y="160" as="sourcePoint" />
            <mxPoint x="610" y="110" as="targetPoint" />
          </mxGeometry>
        </mxCell>
        <mxCell id="6kc5_YprjEtkSy11eYte-40" value="" style="endArrow=none;html=1;rounded=0;" edge="1" parent="1">
          <mxGeometry width="50" height="50" relative="1" as="geometry">
            <mxPoint x="390" y="110" as="sourcePoint" />
            <mxPoint x="440" y="160" as="targetPoint" />
          </mxGeometry>
        </mxCell>
        <mxCell id="6kc5_YprjEtkSy11eYte-41" value="Nº de artículo" style="ellipse;whiteSpace=wrap;html=1;" vertex="1" parent="1">
          <mxGeometry x="330" y="80" width="80" height="40" as="geometry" />
        </mxCell>
        <mxCell id="6kc5_YprjEtkSy11eYte-42" value="Fábricas que lo sitribuyen" style="ellipse;whiteSpace=wrap;html=1;" vertex="1" parent="1">
          <mxGeometry x="590" y="70" width="90" height="50" as="geometry" />
        </mxCell>
        <mxCell id="6kc5_YprjEtkSy11eYte-43" value="" style="endArrow=none;html=1;rounded=0;" edge="1" parent="1">
          <mxGeometry width="50" height="50" relative="1" as="geometry">
            <mxPoint x="680" y="90" as="sourcePoint" />
            <mxPoint x="720" y="60" as="targetPoint" />
          </mxGeometry>
        </mxCell>
        <mxCell id="6kc5_YprjEtkSy11eYte-44" value="" style="endArrow=none;html=1;rounded=0;" edge="1" parent="1">
          <mxGeometry width="50" height="50" relative="1" as="geometry">
            <mxPoint x="590" y="90" as="sourcePoint" />
            <mxPoint x="540" y="60" as="targetPoint" />
          </mxGeometry>
        </mxCell>
        <mxCell id="6kc5_YprjEtkSy11eYte-45" value="existencias de artículo" style="ellipse;whiteSpace=wrap;html=1;" vertex="1" parent="1">
          <mxGeometry x="470" y="30" width="80" height="40" as="geometry" />
        </mxCell>
        <mxCell id="6kc5_YprjEtkSy11eYte-46" value="descripción de artículo" style="ellipse;whiteSpace=wrap;html=1;" vertex="1" parent="1">
          <mxGeometry x="707" y="30" width="73" height="40" as="geometry" />
        </mxCell>
        <mxCell id="6kc5_YprjEtkSy11eYte-47" value="" style="endArrow=none;html=1;rounded=0;" edge="1" parent="1">
          <mxGeometry width="50" height="50" relative="1" as="geometry">
            <mxPoint x="540" y="440" as="sourcePoint" />
            <mxPoint x="570" y="410" as="targetPoint" />
          </mxGeometry>
        </mxCell>
        <mxCell id="6kc5_YprjEtkSy11eYte-48" value="" style="endArrow=none;html=1;rounded=0;" edge="1" parent="1">
          <mxGeometry width="50" height="50" relative="1" as="geometry">
            <mxPoint x="400" y="410" as="sourcePoint" />
            <mxPoint x="420" y="440" as="targetPoint" />
          </mxGeometry>
        </mxCell>
        <mxCell id="6kc5_YprjEtkSy11eYte-49" value="cabecera" style="ellipse;whiteSpace=wrap;html=1;" vertex="1" parent="1">
          <mxGeometry x="335" y="390" width="70" height="30" as="geometry" />
        </mxCell>
        <mxCell id="6kc5_YprjEtkSy11eYte-50" value="cuerpo del pedido" style="ellipse;whiteSpace=wrap;html=1;" vertex="1" parent="1">
          <mxGeometry x="550" y="380" width="70" height="30" as="geometry" />
        </mxCell>
        <mxCell id="6kc5_YprjEtkSy11eYte-51" value="" style="endArrow=none;html=1;rounded=0;" edge="1" parent="1">
          <mxGeometry width="50" height="50" relative="1" as="geometry">
            <mxPoint x="335" y="400" as="sourcePoint" />
            <mxPoint x="280" y="350" as="targetPoint" />
          </mxGeometry>
        </mxCell>
        <mxCell id="6kc5_YprjEtkSy11eYte-52" value="" style="endArrow=none;html=1;rounded=0;exitX=0.257;exitY=0.067;exitDx=0;exitDy=0;exitPerimeter=0;" edge="1" parent="1" source="6kc5_YprjEtkSy11eYte-49">
          <mxGeometry width="50" height="50" relative="1" as="geometry">
            <mxPoint x="350" y="390" as="sourcePoint" />
            <mxPoint x="340" y="320" as="targetPoint" />
          </mxGeometry>
        </mxCell>
        <mxCell id="6kc5_YprjEtkSy11eYte-53" value="" style="endArrow=none;html=1;rounded=0;" edge="1" parent="1">
          <mxGeometry width="50" height="50" relative="1" as="geometry">
            <mxPoint x="370" y="390" as="sourcePoint" />
            <mxPoint x="400" y="320" as="targetPoint" />
          </mxGeometry>
        </mxCell>
        <mxCell id="6kc5_YprjEtkSy11eYte-54" value="" style="endArrow=none;html=1;rounded=0;" edge="1" parent="1">
          <mxGeometry width="50" height="50" relative="1" as="geometry">
            <mxPoint x="620" y="390" as="sourcePoint" />
            <mxPoint x="670" y="340" as="targetPoint" />
          </mxGeometry>
        </mxCell>
        <mxCell id="6kc5_YprjEtkSy11eYte-55" value="número de cliente" style="ellipse;whiteSpace=wrap;html=1;" vertex="1" parent="1">
          <mxGeometry x="220" y="320" width="80" height="40" as="geometry" />
        </mxCell>
        <mxCell id="6kc5_YprjEtkSy11eYte-56" value="dirección de envío" style="ellipse;whiteSpace=wrap;html=1;" vertex="1" parent="1">
          <mxGeometry x="300" y="280" width="70" height="40" as="geometry" />
        </mxCell>
        <mxCell id="6kc5_YprjEtkSy11eYte-57" value="fecha del pedido" style="ellipse;whiteSpace=wrap;html=1;" vertex="1" parent="1">
          <mxGeometry x="379" y="280" width="70" height="40" as="geometry" />
        </mxCell>
        <mxCell id="6kc5_YprjEtkSy11eYte-58" value="cantidad" style="ellipse;whiteSpace=wrap;html=1;" vertex="1" parent="1">
          <mxGeometry x="660" y="310" width="70" height="40" as="geometry" />
        </mxCell>
        <mxCell id="6kc5_YprjEtkSy11eYte-59" value="" style="endArrow=none;html=1;rounded=0;exitX=0;exitY=0;exitDx=0;exitDy=0;" edge="1" parent="1" source="6kc5_YprjEtkSy11eYte-50">
          <mxGeometry width="50" height="50" relative="1" as="geometry">
            <mxPoint x="550" y="390" as="sourcePoint" />
            <mxPoint x="530" y="330" as="targetPoint" />
          </mxGeometry>
        </mxCell>
        <mxCell id="6kc5_YprjEtkSy11eYte-60" value="nº del artículo pedido" style="ellipse;whiteSpace=wrap;html=1;" vertex="1" parent="1">
          <mxGeometry x="500" y="300" width="60" height="40" as="geometry" />
        </mxCell>
        <mxCell id="6kc5_YprjEtkSy11eYte-61" value="" style="endArrow=none;html=1;rounded=0;exitX=0;exitY=0;exitDx=0;exitDy=0;" edge="1" parent="1">
          <mxGeometry width="50" height="50" relative="1" as="geometry">
            <mxPoint x="405.00126265847075" y="279.9978643762689" as="sourcePoint" />
            <mxPoint x="390" y="250" as="targetPoint" />
          </mxGeometry>
        </mxCell>
        <mxCell id="6kc5_YprjEtkSy11eYte-62" value="hora" style="ellipse;whiteSpace=wrap;html=1;" vertex="1" parent="1">
          <mxGeometry x="360" y="220" width="50" height="35" as="geometry" />
        </mxCell>
      </root>
    </mxGraphModel>
  </diagram>
</mxfile>
